<?xml version="1.0" standalone="no"?>
<!DOCTYPE svg PUBLIC "-//W3C//DTD SVG 1.1//EN" "http://www.w3.org/Graphics/SVG/1.1/DTD/svg11.dtd" >
<svg xmlns="http://www.w3.org/2000/svg" xmlns:xlink="http://www.w3.org/1999/xlink" version="1.1">
<metadata></metadata>
<defs>
<font id="nimbus_sans_lregular" horiz-adv-x="933" >
<font-face units-per-em="2048" ascent="1638" descent="-410" />
<missing-glyph horiz-adv-x="466" />
<glyph horiz-adv-x="0" />
<glyph unicode="&#xd;" horiz-adv-x="466" />
<glyph unicode=" "  horiz-adv-x="466" />
<glyph unicode="&#x09;" horiz-adv-x="466" />
<glyph unicode="&#xa0;" horiz-adv-x="466" />
<glyph unicode="!" horiz-adv-x="466" d="M152 0v209h161v-209h-161zM152 985v485h161v-485l-41 -635h-79z" />
<glyph unicode="&#x22;" horiz-adv-x="595" d="M117 948v522h123v-522h-123zM356 948v522h123v-522h-123z" />
<glyph unicode="#" d="M47 430l14 129h175l30 291h-172l15 129h174l49 430h112l-49 -430h209l47 430h113l-47 -430h172l-15 -129h-174l-32 -291h172l-15 -129h-174l-47 -430h-112l49 430h-209l-49 -430h-111l47 430h-172zM346 559h211l31 291h-209z" />
<glyph unicode="$" d="M53 436h148q4 -84 16 -140t38 -93t66.5 -58.5t104.5 -33.5v542q-51 14 -88 28.5t-65.5 28t-51 30t-43.5 36.5q-49 47 -74.5 117t-25.5 156q0 113 42 202.5t120 145.5q43 31 81.5 43t104.5 16v131h78v-131q166 -18 248 -112.5t92 -276.5h-142q-12 109 -56 162t-142 78 v-490q63 -23 107 -40t76 -33.5t55.5 -34t45.5 -37.5q41 -41 62.5 -108.5t21.5 -160.5q0 -262 -165 -378q-47 -31 -89.5 -45.5t-113.5 -18.5v-197h-78v197q-193 14 -282 129t-91 346zM225 1069q0 -94 48.5 -149.5t152.5 -81.5v469q-96 -6 -148.5 -68.5t-52.5 -169.5zM504 111 q53 4 83.5 14t59.5 39q37 35 57.5 88t20.5 115q0 80 -36 143t-95 86l-90 35v-520z" />
<glyph unicode="%" horiz-adv-x="1492" d="M66 1040q0 186 66.5 284.5t191.5 98.5q119 0 184 -100t65 -283q0 -184 -65.5 -283.5t-188.5 -99.5t-188 99.5t-65 283.5zM182 1040q0 -274 137 -274t138 276q-1 273 -140 273q-135 0 -135 -275zM369 -39l661 1479h94l-665 -1479h-90zM920 369q0 186 66.5 284.5 t189.5 98.5q121 0 186 -100.5t65 -282.5q0 -184 -65.5 -283.5t-187.5 -99.5q-123 0 -188.5 99t-65.5 284zM1036 369q0 -274 138 -275q137 0 137 277q-1 272 -140 272q-135 0 -135 -274z" />
<glyph unicode="&#x26;" horiz-adv-x="1120" d="M74 377q0 72 12 128t44 106.5t84 99.5t132 106q-39 57 -63.5 100.5t-39 79t-19.5 68.5t-5 74q0 74 20.5 135t58.5 104t91 67.5t117 24.5q121 0 194.5 -83.5t73.5 -221.5q0 -57 -11 -105t-37 -92t-67 -89t-102 -97l221 -319q10 33 16.5 58.5t11.5 50t10 52t11 68.5h140 q-8 -96 -32 -185t-67 -190l215 -317h-190l-113 168q-41 -55 -79.5 -93t-79.5 -61.5t-87.5 -34t-101.5 -10.5q-168 0 -263 107.5t-95 300.5zM221 375q0 -53 16.5 -99.5t47 -79t71.5 -51t90 -18.5q145 0 254 162l-272 405q-61 -47 -102 -85t-63.5 -74.5t-32 -74.5t-9.5 -85z M362 1157q0 -57 29 -118.5t90 -139.5q82 70 116 127t34 129t-36 115t-97 43t-98.5 -42t-37.5 -114z" />
<glyph unicode="'" horiz-adv-x="321" d="M98 948v522h123v-522h-123z" />
<glyph unicode="(" horiz-adv-x="559" d="M115 537q0 125 14 237.5t48 226t88 235.5t132 265h103q-68 -154 -112 -275.5t-69.5 -232t-36 -223.5t-10.5 -250q0 -119 9.5 -218t35 -204.5t70.5 -229.5t115 -292h-99q-84 158 -140 281t-89 232.5t-46 216t-13 231.5z" />
<glyph unicode=")" horiz-adv-x="559" d="M57 1501h99q84 -158 140 -281.5t89 -232t46 -215t13 -231.5t-14 -238t-48 -226.5t-88 -235.5t-132 -265h-103q68 154 112 275.5t69.5 233.5t36 224.5t10.5 247.5q0 119 -9.5 217t-35 203.5t-70.5 229.5t-115 294z" />
<glyph unicode="*" horiz-adv-x="653" d="M66 1210l32 113l176 -78v225h101v-225l176 78l35 -113l-183 -69l113 -189l-82 -69l-108 192l-111 -192l-82 69l113 189z" />
<glyph unicode="+" horiz-adv-x="980" d="M66 442v150h364v442h123v-442h362v-150h-362v-442h-123v442h-364z" />
<glyph unicode="," horiz-adv-x="466" d="M145 0v219h177v-203q0 -276 -177 -317v94q88 12 91 207h-91z" />
<glyph unicode="-" horiz-adv-x="559" d="M74 475v184h411v-184h-411z" />
<glyph unicode="." horiz-adv-x="466" d="M145 0v219h177v-219h-177z" />
<glyph unicode="/" horiz-adv-x="466" d="M-29 -39l414 1548h111l-412 -1548h-113z" />
<glyph unicode="0" d="M61 702q0 356 105.5 547t304.5 191q190 0 295.5 -194.5t105.5 -547.5q0 -354 -105 -545.5t-300 -191.5q-197 0 -301.5 192.5t-104.5 548.5zM219 700q0 -287 62.5 -433t185.5 -146t185.5 146.5t62.5 437.5q0 285 -63.5 430t-186.5 145q-121 0 -183.5 -147.5t-62.5 -432.5z " />
<glyph unicode="1" d="M170 1022v143q82 6 135 19.5t88 44.5t55.5 81t38.5 130h115v-1440h-158v1022h-274z" />
<glyph unicode="2" d="M43 0q4 100 21.5 183t51.5 153t84 128t119 107l158 111q74 53 109 84t55 59q53 76 53 187q0 123 -63.5 195.5t-169.5 72.5q-117 0 -173.5 -84t-66.5 -272h-147q2 127 19.5 202.5t58.5 141.5q51 82 134 127t187 45q86 0 155.5 -31t119 -88t77 -136t27.5 -177 q0 -166 -84 -283q-16 -23 -36.5 -44.5t-47.5 -45t-62.5 -49t-84.5 -58.5l-123 -82q-90 -59 -142.5 -130.5t-62.5 -145.5h643v-170h-809z" />
<glyph unicode="3" d="M57 440h154q4 -88 15.5 -136t37.5 -87q61 -96 193 -96q121 0 191.5 76.5t70.5 205.5q0 123 -67.5 193t-188.5 70h-21q-23 -2 -34 -2h-31v155q31 -4 45 -4h29q111 0 169 60.5t58 171.5q0 109 -58.5 171t-158.5 62q-113 0 -166 -71.5t-64 -239.5h-145q4 115 20.5 183.5 t53.5 129.5q96 158 305 158q168 0 267 -103.5t99 -277.5q0 -223 -155 -297q111 -49 156 -127t45 -211q0 -104 -30 -190.5t-84 -146.5t-132 -93t-172 -33q-84 0 -156 27.5t-123 81.5q-29 29 -49 62.5t-34.5 77.5t-24 100.5t-15.5 129.5z" />
<glyph unicode="4" d="M41 350v178l541 912h123v-932h174v-158h-174v-350h-148v350h-516zM176 508h381v657z" />
<glyph unicode="5" d="M53 358h154q6 -53 16 -85.5t33 -61.5q31 -43 82 -67.5t111 -24.5q57 0 104 23.5t81 67.5t52.5 104.5t18.5 134.5q0 143 -72 230t-189 87q-66 0 -118 -33t-101 -104l-129 8l90 772h611v-178h-500l-51 -395q53 47 106.5 68.5t118.5 21.5q86 0 157.5 -35t124 -96.5 t81 -146.5t28.5 -185q0 -115 -29.5 -207t-85 -157.5t-134 -101.5t-175.5 -36q-225 0 -325 180q-25 45 -37.5 91.5t-22.5 125.5z" />
<glyph unicode="6" d="M63 659q0 182 30 328t85 246t136 153.5t184 53.5q96 0 174 -47t123 -133q23 -43 33 -86.5t18 -116.5h-146q-20 117 -67 170t-133 53q-137 0 -215 -172q-33 -74 -48.5 -158t-21.5 -217q51 96 117.5 140.5t163.5 44.5q84 0 152.5 -34t117.5 -94.5t76.5 -145.5t27.5 -187 q0 -109 -26.5 -195t-85.5 -162q-57 -74 -124 -106.5t-159 -32.5q-199 0 -305.5 180.5t-106.5 517.5zM238 444q0 -143 67.5 -232t177.5 -89q104 0 169 89t65 234t-64.5 228.5t-177.5 83.5q-109 0 -173 -86t-64 -228z" />
<glyph unicode="7" d="M61 1231v178h818v-160q-188 -256 -309 -565t-177 -684h-164q18 154 60.5 311.5t104 314t142 310.5t177.5 295h-652z" />
<glyph unicode="8" d="M63 399q0 137 45 220.5t156 144.5q-84 45 -122 111.5t-38 168.5q0 88 26 162t73 125t113.5 80t146.5 29q82 0 148.5 -28t113.5 -77t73.5 -118.5t26.5 -153.5q0 -109 -34.5 -176.5t-114.5 -120.5q102 -59 147 -143t45 -211q0 -100 -28.5 -183.5t-80.5 -142.5t-124 -92 t-160 -33q-94 0 -170 32t-130 89t-83 138t-29 179zM221 403q0 -131 67.5 -206.5t184.5 -75.5t177.5 68.5t60.5 203.5t-65.5 209t-182.5 74q-111 0 -176.5 -75t-65.5 -198zM258 1057q0 -98 57.5 -162t147.5 -64q92 0 150.5 65t58.5 165q0 102 -58.5 160.5t-158.5 58.5 q-92 0 -144.5 -59.5t-52.5 -163.5z" />
<glyph unicode="9" d="M70 946q0 111 27.5 202t77.5 155.5t122 100.5t158 36q199 0 303 -169t104 -495q0 -197 -34.5 -360.5t-96.5 -268.5q-57 -98 -131 -142t-172 -44q-154 0 -244 100.5t-100 284.5h147q20 -236 199 -235q119 0 188 127q16 31 31 68.5t26 88.5t21.5 117t20.5 154 q-82 -184 -279 -185q-84 0 -151.5 34t-115.5 94.5t-74.5 146.5t-26.5 190zM223 946q0 -150 59.5 -227.5t174.5 -77.5q111 0 171 84t60 238q0 152 -61 234.5t-174 82.5q-104 0 -167 -90t-63 -244z" />
<glyph unicode=":" horiz-adv-x="466" d="M145 0v219h177v-219h-177zM145 838v219h177v-219h-177z" />
<glyph unicode=";" horiz-adv-x="466" d="M145 0v219h177v-203q0 -276 -177 -317v94q88 12 91 207h-91zM145 838v219h177v-219h-177z" />
<glyph unicode="&#x3c;" horiz-adv-x="980" d="M80 444v148l821 424v-168l-653 -330l653 -330v-168z" />
<glyph unicode="=" horiz-adv-x="980" d="M66 236v149h849v-149h-849zM66 649v150h849v-150h-849z" />
<glyph unicode="&#x3e;" horiz-adv-x="980" d="M80 20v168l653 330l-653 330v168l821 -424v-148z" />
<glyph unicode="?" d="M94 1010q2 70 8.5 122t16.5 91t27.5 70.5t43.5 62.5q109 133 279 133q80 0 145.5 -29.5t112.5 -82t72.5 -126t25.5 -161.5q0 -47 -6 -85t-23.5 -76t-48 -81t-79.5 -98q-47 -55 -76 -95.5t-44.5 -80t-20.5 -86t-5 -113.5h-147q0 80 6 135t22.5 102t47 93.5t81.5 109.5 q45 55 72 92t41 64.5t18.5 54.5t4.5 61q0 115 -54.5 179.5t-150.5 64.5q-111 0 -164 -77.5t-57 -243.5h-148zM371 0v209h164v-209h-164z" />
<glyph unicode="@" horiz-adv-x="1703" d="M248 737q0 160 49 301.5t135 246t202 164.5t249 60q121 0 226 -49t183 -136t122 -203.5t44 -252.5q0 -125 -38 -236.5t-111 -201.5q-57 -72 -126 -111.5t-130 -39.5q-96 0 -103 131q-57 -70 -106 -100.5t-105 -30.5q-51 0 -95 25.5t-76.5 70.5t-51 107.5t-18.5 133.5 q0 113 30.5 213.5t84 176t124 120.5t148.5 45q68 0 112.5 -36.5t81.5 -122.5l33 127h115q-12 -59 -22.5 -100.5t-18.5 -78t-17.5 -72.5t-21.5 -85q-41 -164 -56.5 -239t-15.5 -97q0 -55 35 -55q45 0 88 38.5t77 102t54.5 143.5t20.5 164q0 113 -35 208t-97.5 165 t-148.5 109.5t-186 39.5q-109 0 -203 -50t-162.5 -137t-107.5 -207t-39 -259q0 -135 40 -253t109.5 -204t164.5 -135t206 -49q119 0 227 64q27 14 49.5 30.5t44 36t43 44t45.5 59.5h113q-20 -37 -36.5 -64t-32 -48.5t-31 -39.5t-35.5 -39q-84 -84 -183.5 -127t-207.5 -43 q-133 0 -250 60.5t-203 166t-136 246.5t-50 303zM635 621q0 -86 40 -140.5t101 -54.5q53 0 104.5 46t90.5 132q27 53 41 115.5t14 114.5q0 80 -42 135t-101 55q-47 0 -91 -35t-79 -91t-56.5 -129t-21.5 -148z" />
<glyph unicode="A" horiz-adv-x="1120" d="M23 0l452 1470h187l436 -1470h-178l-119 428h-484l-127 -428h-167zM367 606h374l-180 651z" />
<glyph unicode="B" horiz-adv-x="1120" d="M125 0v1470h530q76 0 139.5 -26.5t107.5 -74.5t68.5 -116.5t24.5 -152.5q0 -106 -37.5 -180t-121.5 -127q59 -29 100 -63t67.5 -76t38 -95t11.5 -121q0 -98 -29 -179t-83 -138.5t-129 -89t-167 -31.5h-520zM289 170h348q121 0 186.5 69.5t65.5 198.5q0 250 -281 250h-319 v-518zM289 848h293q129 0 189 56.5t60 176.5q0 115 -59 167t-188 52h-295v-452z" />
<glyph unicode="C" horiz-adv-x="1212" d="M74 733q0 178 39 322.5t112.5 245t178 154.5t233.5 54q141 0 248.5 -62.5t173.5 -180.5q31 -55 46 -105.5t25 -132.5h-157q-10 45 -21.5 80t-25 61.5t-31.5 48t-43 42.5q-41 35 -96.5 53t-114.5 18q-188 0 -293.5 -159.5t-105.5 -444.5q0 -281 101 -434.5t288 -153.5 q174 0 270 158q29 47 47.5 99.5t36.5 144.5h158q-16 -86 -32.5 -151.5t-37 -116t-47.5 -90.5t-61 -74q-68 -72 -158 -110t-191 -38q-125 0 -225 54.5t-170.5 154.5t-108.5 242.5t-38 320.5z" />
<glyph unicode="D" horiz-adv-x="1212" d="M135 0v1470h490q117 0 210 -51t159.5 -144t102.5 -226.5t36 -296.5q0 -172 -36 -311.5t-102.5 -238t-162 -150.5t-214.5 -52h-483zM299 170h315q82 0 146.5 39t109.5 112.5t70 178t25 235.5q0 274 -93.5 419.5t-267.5 145.5h-305v-1130z" />
<glyph unicode="E" horiz-adv-x="1120" d="M145 0v1470h877v-178h-713v-448h658v-178h-658v-488h725v-178h-889z" />
<glyph unicode="F" horiz-adv-x="1026" d="M145 0v1470h834v-178h-670v-448h590v-178h-590v-666h-164z" />
<glyph unicode="G" horiz-adv-x="1306" d="M80 717q0 178 41 323.5t115.5 250t180 161.5t232.5 57q139 0 256 -67.5t185 -186.5q14 -27 25 -50t19.5 -50t14.5 -58.5t12 -72.5h-157q-12 45 -23.5 80t-27 62.5t-35 49t-44.5 41.5q-92 74 -223 74q-92 0 -166.5 -42t-127 -120.5t-81 -191.5t-28.5 -254 q0 -293 103.5 -442.5t303.5 -149.5q174 0 279 137q25 33 43 67t28.5 75t16.5 91t6 115h-375v170h529v-786h-107l-37 190q-43 -63 -75.5 -96t-79.5 -63q-115 -70 -252 -70q-115 0 -202 40t-159 126q-98 117 -144 258t-46 332z" />
<glyph unicode="H" horiz-adv-x="1212" d="M129 0v1470h164v-608h629v608h163v-1470h-163v684h-629v-684h-164z" />
<glyph unicode="I" horiz-adv-x="466" d="M154 0v1470h161v-1470h-161z" />
<glyph unicode="J" horiz-adv-x="839" d="M29 328v145h153v-102q0 -123 44 -181.5t141 -58.5q188 0 188 254v1085h164v-1073q0 -211 -91 -323.5t-259 -112.5q-156 0 -248 99.5t-92 267.5z" />
<glyph unicode="K" horiz-adv-x="1120" d="M127 0v1470h164v-712l586 712h225l-504 -593l516 -877h-211l-422 737l-190 -221v-516h-164z" />
<glyph unicode="L" d="M127 0v1470h164v-1292h610v-178h-774z" />
<glyph unicode="M" horiz-adv-x="1398" d="M123 0v1470h233l346 -1249l345 1249h231v-1470h-158v868v93l4 286l-344 -1247h-159l-345 1245l3 -282q2 -35 2 -58.5v-36.5v-868h-158z" />
<glyph unicode="N" horiz-adv-x="1212" d="M127 0v1470h192l609 -1194v1194h157v-1470h-182l-618 1194v-1194h-158z" />
<glyph unicode="O" horiz-adv-x="1306" d="M66 733q0 176 47 328.5t135 261.5q152 186 414 186q166 0 289.5 -86t201.5 -252q41 -94 64.5 -206.5t23.5 -231.5q0 -174 -47 -324.5t-135 -261.5q-72 -92 -176.5 -139t-229.5 -47t-229.5 47t-175.5 139q-88 111 -135 261.5t-47 324.5zM233 735q0 -135 30 -244.5 t85 -187.5t133 -121t172 -43t172 43t133.5 121t85 187.5t29.5 244.5t-30.5 245t-86 188.5t-133.5 120.5t-174 42q-92 0 -169 -43t-132 -122t-85 -188.5t-30 -242.5z" />
<glyph unicode="P" horiz-adv-x="1120" d="M145 0v1470h541q80 0 146.5 -29.5t113.5 -83.5t72.5 -131t25.5 -171q0 -98 -25.5 -178t-72.5 -137.5t-112.5 -88t-147.5 -30.5h-377v-621h-164zM309 791h322q246 0 246 258q0 251 -238 251h-2h-328v-509z" />
<glyph unicode="Q" horiz-adv-x="1306" d="M66 735q0 174 47 325.5t135 262.5q72 92 176 139t229 47t229.5 -47t176.5 -139q88 -111 135 -261.5t47 -324.5q0 -186 -55 -352q-10 -33 -20.5 -58.5t-24 -51t-31.5 -53t-43 -62.5l164 -156l-82 -119l-184 174q-74 -53 -145.5 -75.5t-164.5 -22.5q-127 0 -231.5 47 t-175.5 139q-88 111 -135 262.5t-47 325.5zM233 735q0 -135 30 -244.5t85 -188.5t133 -121t174 -42q49 0 90 10.5t86 34.5l-126 119l83 123l152 -145q70 96 101.5 202.5t31.5 251.5q0 135 -29.5 245t-85 187.5t-133 120.5t-172.5 43q-94 0 -172 -43t-133 -120.5t-85 -187.5 t-30 -245z" />
<glyph unicode="R" horiz-adv-x="1212" d="M147 0v1470h560q195 0 295 -100t100 -297q0 -63 -8.5 -112.5t-29 -90.5t-52 -76.5t-78.5 -70.5q39 -18 65.5 -39.5t43 -53.5t24.5 -76t12 -108l8 -266q2 -35 5.5 -56.5t9.5 -37.5t17 -28.5t30 -24.5v-33h-201q-6 23 -10 60.5t-8 87t-6 105.5t-2 116q-4 141 -52.5 201.5 t-162.5 60.5h-396v-631h-164zM311 801h377q127 0 186.5 61.5t59.5 194.5q0 243 -215 243h-2h-406v-499z" />
<glyph unicode="S" horiz-adv-x="1120" d="M82 475h154q2 -76 12 -120t39 -87q41 -68 114.5 -102.5t171.5 -34.5q147 0 228.5 65.5t81.5 188.5q0 53 -12.5 91t-41 67.5t-79 51t-123.5 44.5l-248 70q-256 72 -256 352q0 90 26.5 170t73.5 141q111 137 330 137q141 0 242.5 -54t154.5 -159q12 -27 22.5 -52t16.5 -54 t10.5 -66t8.5 -84h-154q-4 66 -15.5 104t-35.5 75q-79 120 -247 120h-3q-129 0 -200.5 -66.5t-71.5 -187.5q0 -78 33.5 -124t107.5 -66l344 -96q135 -37 204.5 -137.5t69.5 -258.5q0 -209 -126 -325.5t-349 -116.5q-141 0 -235 45t-164 146q-45 63 -63.5 134.5t-20.5 188.5z " />
<glyph unicode="T" horiz-adv-x="1026" d="M23 1292v178h981v-178h-408v-1292h-164v1292h-409z" />
<glyph unicode="U" horiz-adv-x="1212" d="M133 489v981h164v-925q0 -197 80 -301.5t227 -104.5q150 0 232 104.5t82 297.5v929h163v-954q0 -127 -33.5 -229.5t-97 -175t-152.5 -111.5t-200 -39q-106 0 -192.5 37t-146.5 105.5t-93 167t-33 218.5z" />
<glyph unicode="V" horiz-adv-x="1120" d="M33 1470h182l346 -1259l342 1259h184l-440 -1470h-174z" />
<glyph unicode="W" horiz-adv-x="1585" d="M27 1470h176l227 -1204l272 1204h179l272 -1204l225 1204h181l-318 -1470h-172l-276 1227l-281 -1227h-172z" />
<glyph unicode="X" horiz-adv-x="1120" d="M33 0l430 754l-404 716h205l305 -563l305 563h195l-403 -716l421 -754h-200l-324 604l-334 -604h-196z" />
<glyph unicode="Y" horiz-adv-x="1120" d="M23 1470h190l346 -706l346 706h191l-455 -878v-592h-164v592z" />
<glyph unicode="Z" horiz-adv-x="1026" d="M39 0v168l739 1124h-684v178h893v-174l-741 -1118h741v-178h-948z" />
<glyph unicode="[" horiz-adv-x="466" d="M106 -401v1880h314v-148h-180v-1585h180v-147h-314z" />
<glyph unicode="\" horiz-adv-x="466" d="M-29 1509h111l414 -1548h-113z" />
<glyph unicode="]" horiz-adv-x="466" d="M47 -254h180v1585h-180v148h313v-1880h-313v147z" />
<glyph unicode="^" horiz-adv-x="788" d="M-23 541l357 868h121l356 -868h-129l-287 704l-286 -704h-132z" />
<glyph unicode="_" d="M0 -154h934v-102h-934v102z" />
<glyph unicode="`" horiz-adv-x="559" d="M23 1503h182l149 -289h-112z" />
<glyph unicode="a" d="M61 283q0 141 69 226t198 105l243 37q41 6 59.5 35t18.5 88q0 178 -203 178q-98 0 -144 -46t-62 -161h-136q4 82 16.5 130.5t41.5 91.5q88 135 295 135q158 0 247 -79t89 -220v-617q0 -63 47 -63q10 0 17 1t24 5l10 2v-131q-4 -2 -7 -2t-12 -4q-37 -14 -67 -14 q-76 0 -109.5 36.5t-42.5 126.5q-72 -92 -144.5 -133t-166.5 -41q-129 0 -205 85t-76 229zM215 299q0 -180 158 -180q55 0 104 20.5t87 54t59.5 79.5t21.5 98v176q-12 -10 -27.5 -18.5t-42 -15.5t-68.5 -15.5t-106 -18.5q-100 -16 -143 -58t-43 -122z" />
<glyph unicode="b" d="M98 0v1470h148v-538q57 92 116.5 131t143.5 39q82 0 148.5 -39t113.5 -109.5t73.5 -171t26.5 -221.5q0 -135 -27.5 -243.5t-77.5 -186.5t-121 -120t-157 -42t-142 39t-105 131v-139h-140zM240 508q0 -180 63.5 -280.5t177.5 -100.5q111 0 172.5 110.5t61.5 313.5 q0 391 -240 391q-115 0 -175 -110.5t-60 -323.5z" />
<glyph unicode="c" horiz-adv-x="839" d="M51 516q0 135 30 242.5t83 184.5t130 118t173 41q295 0 334 -391h-144q-18 123 -67 177t-137 54q-117 0 -180.5 -107.5t-63.5 -304.5t60.5 -300t172.5 -103q168 0 215 252h144q-53 -410 -357 -410q-90 0 -162.5 39t-124 109.5t-79 172t-27.5 226.5z" />
<glyph unicode="d" d="M59 561q0 123 26 222.5t74 170t114.5 109.5t148.5 39q92 0 153.5 -44t114.5 -149v561h148v-1470h-140v154q-47 -100 -105 -142.5t-149 -42.5q-88 0 -158.5 42t-120.5 119t-78 186.5t-28 244.5zM213 549q0 -201 61.5 -311.5t171.5 -110.5q115 0 178.5 100.5t63.5 280.5 q0 215 -61.5 324.5t-180.5 109.5q-233 0 -233 -393z" />
<glyph unicode="e" d="M68 516q0 135 29.5 242.5t82.5 184.5t130 118t173 41q111 0 185.5 -53.5t126.5 -163.5q18 -39 30.5 -79t20.5 -87t13 -106.5t7 -135.5h-641q4 -92 15.5 -145t40.5 -99q63 -106 194 -106q90 0 155.5 58.5t76.5 150.5h147q-29 -174 -129 -270.5t-254 -96.5 q-188 0 -295.5 145.5t-107.5 401.5zM225 621h488q-6 86 -18.5 135t-41.5 90q-61 96 -176 96q-106 0 -176 -88t-76 -233z" />
<glyph unicode="f" horiz-adv-x="466" d="M23 922v149h122v184q0 236 224 236h24t33 -2l14 -2v-162q-25 4 -37 4h-24q-45 0 -65.5 -29.5t-20.5 -95.5v-133h147v-149h-147v-922h-148v922h-122z" />
<glyph unicode="g" d="M68 561q0 123 25.5 222.5t73.5 170t114.5 109.5t148.5 39q88 0 148.5 -42t119.5 -147v158h140v-983q0 -133 -17.5 -221t-58.5 -154q-102 -164 -330 -164q-137 0 -221 72q-25 20 -43 42t-31.5 51.5t-24 66.5t-18.5 88h148q20 -92 65 -131t131 -39q158 0 215 127 q20 41 28.5 97.5t8.5 152.5v43q-45 -78 -101.5 -114t-139.5 -36q-86 0 -157 42t-120 120t-76.5 186.5t-27.5 243.5zM221 549q0 -201 61.5 -311.5t172.5 -110.5q115 0 178 100.5t63 284.5q0 430 -241 430q-233 0 -234 -393z" />
<glyph unicode="h" d="M109 0v1470h147v-546q33 49 62.5 83.5t61.5 55t67.5 30t80.5 9.5q141 0 219 -97.5t78 -275.5v-729h-147v700q0 129 -40 185.5t-132 56.5q-121 0 -185.5 -93t-64.5 -265v-584h-147z" />
<glyph unicode="i" horiz-adv-x="372" d="M113 0v1071h147v-1071h-147zM113 1266v204h147v-204h-147z" />
<glyph unicode="j" horiz-adv-x="372" d="M-27 -268h31q35 0 56.5 5t32.5 18.5t15.5 39t4.5 68.5v1208h147v-1229q0 -141 -53 -206.5t-168 -65.5q-16 0 -30.5 1t-35.5 5v156zM113 1266v204h147v-204h-147z" />
<glyph unicode="k" horiz-adv-x="839" d="M113 0v1470h143v-852l379 453h186l-336 -399l357 -672h-191l-272 541l-123 -135v-406h-143z" />
<glyph unicode="l" horiz-adv-x="372" d="M113 0v1470h147v-1470h-147z" />
<glyph unicode="m" horiz-adv-x="1398" d="M109 0v1071h139v-158q57 100 120.5 144.5t151.5 44.5q82 0 136.5 -40t95.5 -134q37 51 67.5 85t61 53t62.5 27.5t73 8.5q129 0 202.5 -96.5t73.5 -264.5v-741h-147v692q0 250 -160 250q-45 0 -83 -22.5t-66.5 -61.5t-45 -91t-16.5 -114v-653h-147v741q0 96 -36 148.5 t-102 52.5q-106 0 -169.5 -96t-63.5 -262v-584h-147z" />
<glyph unicode="n" d="M109 0v1071h139v-158q57 100 122.5 144.5t157.5 44.5q141 0 219 -97.5t78 -275.5v-729h-147v659q0 147 -43 215t-137 68q-113 0 -177.5 -95t-64.5 -263v-584h-147z" />
<glyph unicode="o" d="M59 535q0 127 30 231t84 179t131 116t169 41q88 0 162 -42t127 -117t82.5 -178t29.5 -228t-29.5 -229.5t-83.5 -179.5t-129 -116t-165 -41t-166 41t-129 116t-83 178.5t-30 228.5zM213 537q0 -186 68.5 -297t185.5 -111t185.5 110.5t68.5 297.5q0 188 -69.5 297.5 t-186.5 109.5q-57 0 -104.5 -28.5t-80 -83t-50 -129t-17.5 -166.5z" />
<glyph unicode="p" d="M98 -424v1495h140v-158q31 51 59.5 88t60 58.5t67.5 32t81 10.5q82 0 148.5 -39t113.5 -109.5t73.5 -171t26.5 -221.5q0 -135 -27.5 -243.5t-77.5 -186.5t-121 -120t-157 -42q-82 0 -138 36t-101 114v-543h-148zM240 500q0 -174 64.5 -273.5t176.5 -99.5 q111 0 172.5 110.5t61.5 315.5q0 389 -240 389q-117 0 -176 -111.5t-59 -330.5z" />
<glyph unicode="q" d="M59 561q0 123 26 222.5t74 170t114.5 109.5t148.5 39q88 0 148.5 -42t119.5 -147v158h139v-1495h-147v543q-45 -78 -101.5 -114t-140.5 -36q-86 0 -156.5 42t-119.5 120t-77 186.5t-28 243.5zM213 557q0 -207 61.5 -318.5t171.5 -111.5q115 0 178.5 98.5t63.5 276.5 q0 440 -242 440q-117 0 -175 -97t-58 -288z" />
<glyph unicode="r" horiz-adv-x="559" d="M129 0v1071h139v-182q59 117 115.5 165t134.5 48q12 0 20.5 -1t18.5 -5v-185h-55q-49 0 -90 -21.5t-72 -59t-47.5 -91t-16.5 -114.5v-625h-147z" />
<glyph unicode="s" horiz-adv-x="839" d="M53 344h144q8 -117 61 -167t166 -50q98 0 152.5 45t54.5 123q0 59 -37 91t-137 63l-172 51q-203 61 -203 264q0 76 23.5 138.5t67.5 107.5t106.5 68.5t138.5 23.5q152 0 236.5 -87t95.5 -249h-144q-8 178 -198 178q-86 0 -134.5 -40t-48.5 -111q0 -29 6.5 -49.5t23.5 -36 t48 -28.5t80 -28l149 -45q135 -41 190.5 -105.5t55.5 -178.5q0 -162 -98 -257.5t-266 -95.5q-113 0 -194 43t-122 125q-23 41 -32 85t-13 122z" />
<glyph unicode="t" horiz-adv-x="466" d="M23 922v149h118v299h148v-299h143v-149h-143v-697q0 -45 20.5 -64.5t69.5 -19.5h51v-141l-65 -8q-25 -4 -33 -5t-19 -1q-172 0 -172 229v707h-118z" />
<glyph unicode="u" d="M115 301v770h147v-711q0 -233 170 -233q111 0 176.5 95t65.5 259v590h147v-1071h-139v166q-29 -55 -57.5 -93t-61.5 -60.5t-71.5 -33t-88.5 -10.5q-137 0 -212.5 87t-75.5 245z" />
<glyph unicode="v" horiz-adv-x="839" d="M14 1071h170l230 -878l250 878h161l-333 -1071h-158z" />
<glyph unicode="w" horiz-adv-x="1212" d="M23 1071h161l170 -850l170 850h166l172 -850l180 850h148l-256 -1071h-152l-180 838l-174 -838h-152z" />
<glyph unicode="x" horiz-adv-x="839" d="M18 0l310 551l-295 520h190l203 -377l205 377h180l-297 -520l309 -551h-188l-219 403l-211 -403h-187z" />
<glyph unicode="y" horiz-adv-x="839" d="M18 1071h166l236 -878l237 878h164q-47 -160 -79.5 -272.5t-57.5 -195.5t-44 -145.5t-38.5 -126t-42 -136t-55.5 -175.5q-49 -160 -83 -251t-68 -137t-75.5 -58t-107.5 -12q-16 0 -27.5 2t-31.5 10l-13 4v164q45 -18 90 -18q47 0 71 27.5t48 109.5q10 29 18.5 56.5 t18.5 53.5z" />
<glyph unicode="z" horiz-adv-x="839" d="M51 0v141l531 781h-490v149h682v-147l-526 -774h540v-150h-737z" />
<glyph unicode="{" horiz-adv-x="561" d="M70 479v123q29 4 44 12.5t31 28.5q29 39 44.5 95.5t15.5 123.5v352q0 55 13 104.5t35.5 84.5t54.5 55.5t69 20.5h112v-133h-73q-78 0 -78 -168v-349q0 -49 -11.5 -95t-32 -84t-48 -66.5t-60.5 -42.5q72 -35 112 -113t40 -182v-346q0 -168 78 -168h73v-133h-112 q-37 0 -69 20.5t-54.5 55t-35.5 83.5t-13 105v350q0 145 -62 225q-16 20 -30.5 28.5t-42.5 12.5z" />
<glyph unicode="|" horiz-adv-x="436" d="M158 -39v1548h123v-1548h-123z" />
<glyph unicode="}" horiz-adv-x="561" d="M70 -268h73q78 0 78 168v346q0 104 40 182t112 113q-33 14 -60.5 42.5t-48 66.5t-32 84t-11.5 95v349q0 168 -78 168h-73v133h112q37 0 69 -20.5t54.5 -55.5t35.5 -84t13 -105v-352q0 -141 60 -219q16 -20 31.5 -28.5t43.5 -12.5v-123q-29 -4 -43 -12t-30 -29 q-61 -78 -62 -225v-350q0 -55 -13 -104.5t-35.5 -84t-54.5 -55t-69 -20.5h-112v133z" />
<glyph unicode="~" horiz-adv-x="980" d="M102 483q43 94 92.5 135t116.5 41q20 0 40 -3t46.5 -13t61.5 -28.5t88 -47.5q88 -47 127 -47q31 0 58.5 23.5t62.5 81.5l84 -78q-53 -94 -101.5 -135t-109.5 -41q-39 0 -76 14t-94 53q-59 41 -102.5 56.5t-88.5 15.5q-41 0 -68.5 -22.5t-56.5 -77.5z" />
<glyph unicode="&#xa1;" horiz-adv-x="559" d="M199 86l41 635h79l41 -635v-485h-161v485zM199 862v209h161v-209h-161z" />
<glyph unicode="&#xa2;" d="M86 514q0 279 108.5 433.5t303.5 154.5q27 0 42 -3t31 -9l43 186h66l-41 -205q92 -37 148.5 -132t68.5 -232h-139q-16 92 -42 139t-71 69l-186 -790q16 -4 26.5 -5t30.5 -1q102 0 157.5 57t86.5 199h143q-29 -203 -125 -308.5t-250 -105.5h-18t-18.5 2t-26.5 5t-43 7 l-51 -211h-70l57 234q-121 82 -176 204t-55 312zM233 514q0 -250 123 -354l183 780q-10 2 -17.5 3t-19.5 1q-129 0 -199 -111.5t-70 -318.5z" />
<glyph unicode="&#xa3;" d="M55 649v129h117q-23 53 -37 92t-22.5 70t-11.5 58.5t-3 58.5q0 92 30 167.5t83 130t127 85t164 30.5q176 0 272 -118q100 -125 100 -318v-30h-147v18q0 131 -64.5 211t-170.5 80q-49 0 -92.5 -19.5t-75 -54.5t-50 -81t-18.5 -101q0 -49 18.5 -108.5t67.5 -170.5h281v-129 h-232q8 -41 11.5 -69.5t3.5 -61.5q0 -106 -50.5 -200.5t-160.5 -192.5q68 45 120 64.5t109 19.5q35 0 74 -9.5t96 -31.5q82 -31 115 -31q68 0 127 64l69 -135q-59 -53 -107 -76t-102 -23q-31 0 -66.5 10.5t-94.5 32.5q-66 27 -111 38t-80 11q-47 0 -93 -19.5t-108 -62.5 l-82 142q51 45 79 74.5t50 68.5q35 57 55.5 119.5t20.5 116.5q0 31 -7 66.5t-23 84.5h-181z" />
<glyph unicode="&#xa4;" d="M47 1137l80 98l96 -115q111 104 244 105q133 0 244 -105l96 115l80 -98l-92 -111q45 -72 64.5 -143.5t19.5 -163.5t-19.5 -163t-64.5 -146l90 -115l-76 -92l-92 119q-59 -59 -117.5 -86t-132.5 -27t-132.5 26.5t-117.5 86.5l-92 -119l-76 92l90 115q-45 74 -64.5 145.5 t-19.5 163.5t19.5 164.5t64.5 142.5zM178 719q0 -76 22.5 -142.5t62.5 -116.5t92.5 -79t111.5 -29t111.5 29t92.5 79t62.5 116.5t22.5 140.5q0 76 -22.5 142.5t-62.5 115.5t-93.5 77.5t-114.5 28.5q-57 0 -109.5 -29.5t-91.5 -78.5t-61.5 -114.5t-22.5 -139.5z" />
<glyph unicode="&#xa5;" d="M4 1409h168l293 -604l295 604h168l-326 -623h262v-116h-325v-174h325v-117h-325v-379h-148v379h-321v117h321v174h-321v116h258z" />
<glyph unicode="&#xa6;" horiz-adv-x="436" d="M158 -39v602h123v-602h-123zM158 942v567h123v-567h-123z" />
<glyph unicode="&#xa7;" d="M72 641q0 53 8 96t28.5 80t52.5 71t79 68q-23 31 -38.5 56.5t-24.5 48t-12 47.5t-3 53q0 78 22.5 141.5t62.5 109.5t95 71.5t123 25.5q92 0 161.5 -42t106.5 -121q20 -43 28.5 -88.5t10.5 -122.5h-141q-8 115 -47 166t-117 51q-72 0 -115 -45t-43 -117q0 -53 29 -96 t94 -90l246 -177q98 -72 140 -147.5t42 -179.5t-39 -178t-135 -150q51 -68 69.5 -118t18.5 -115q0 -72 -23.5 -131.5t-66.5 -104.5t-101.5 -69.5t-125.5 -24.5q-94 0 -167 45t-110 127q-23 45 -30 90t-11 123h148q4 -117 43 -172t123 -55q82 0 128 44t46 121q0 49 -20.5 86 t-71.5 78l-355 287q-109 90 -108 258zM211 676q0 -115 76 -172l317 -250q66 53 91.5 97t25.5 108q0 121 -105 198l-292 220q-61 -41 -87 -87.5t-26 -113.5z" />
<glyph unicode="&#xa8;" horiz-adv-x="559" d="M68 1237v209h153v-209h-153zM338 1237v209h154v-209h-154z" />
<glyph unicode="&#xa9;" horiz-adv-x="1236" d="M-23 733q0 166 50.5 307.5t137.5 246t207 163.5t259 59q131 0 246.5 -60t201.5 -165.5t135.5 -246t49.5 -300.5q0 -164 -50.5 -305t-136.5 -245.5t-202.5 -165t-251.5 -60.5t-253 59.5t-205 164t-137.5 245.5t-50.5 303zM104 737q0 -139 40 -257t109 -205t163 -136 t205 -49t205 49t162.5 135t108.5 204t40 255q0 139 -40 258t-109.5 205t-165 135t-206.5 49q-109 0 -201.5 -50t-162.5 -136t-109 -204t-39 -253zM270 741q0 104 27 191.5t75 150t114.5 96t148.5 33.5q88 0 156.5 -39.5t111.5 -113.5q20 -37 30.5 -72t20.5 -96h-112 q-43 184 -205 184q-109 0 -174.5 -90t-65.5 -240q0 -76 18.5 -139t51.5 -109t78 -72t98 -26q80 0 131 50.5t68 142.5h114q-66 -330 -317 -330q-80 0 -147.5 36t-116.5 99.5t-77 151.5t-28 192z" />
<glyph unicode="&#xaa;" horiz-adv-x="620" d="M41 1020q0 86 48 139t140 66l148 20q41 6 41 72q0 86 -125 86q-63 0 -94 -25.5t-37 -83.5h-92q8 111 63 163t168 52q104 0 161.5 -47t57.5 -133v-364q0 -39 31 -39h9t22 4v-90l-4 -2l-9 -2q-14 -4 -23 -5.5t-20 -1.5q-51 0 -72.5 22.5t-25.5 82.5q-47 -55 -95 -80 t-108 -25q-86 0 -135 51.5t-49 139.5zM59 623v98h498v-98h-498zM147 1034q0 -98 97 -98q76 0 125 43t49 108v80q-10 -10 -42 -19t-112 -22q-66 -10 -91.5 -30.5t-25.5 -61.5z" />
<glyph unicode="&#xab;" d="M164 473v189l262 251v-180l-176 -166l176 -166v-180zM508 473v189l262 251v-180l-176 -166l176 -166v-180z" />
<glyph unicode="&#xac;" horiz-adv-x="980" d="M66 649v150h849v-578h-122v428h-727z" />
<glyph unicode="&#xad;" horiz-adv-x="559" d="M74 475v184h411v-184h-411z" />
<glyph unicode="&#xae;" horiz-adv-x="1236" d="M-23 733q0 166 50.5 307.5t137.5 246t207 163.5t259 59q131 0 246.5 -60t201.5 -165.5t135.5 -246t49.5 -300.5q0 -164 -50.5 -305t-136.5 -245.5t-202.5 -165t-251.5 -60.5t-253 59.5t-205 164t-137.5 245.5t-50.5 303zM104 737q0 -139 40 -257t109 -205t163 -136 t205 -49t205 49t162.5 135t108.5 204t40 255q0 139 -40 258t-109.5 205t-165 135t-206.5 49q-109 0 -201.5 -50t-162.5 -136t-109 -204t-39 -253zM377 289v893h276q258 0 258 -252q0 -111 -45 -170.5t-143 -79.5l207 -391h-123l-195 385h-127v-385h-108zM485 791h133 q98 0 137.5 30.5t39.5 108.5q0 135 -158 135h-152v-274z" />
<glyph unicode="&#xaf;" horiz-adv-x="559" d="M16 1284v117h527v-117h-527z" />
<glyph unicode="&#xb0;" horiz-adv-x="671" d="M90 1141q0 63 18.5 118.5t52.5 95.5t80 62.5t99 22.5q51 0 95 -23.5t77 -63.5t51.5 -94.5t18.5 -117.5t-18.5 -118.5t-52.5 -95.5t-79 -62.5t-96 -22.5q-53 0 -97 22.5t-78 62.5t-52.5 95t-18.5 119zM172 1141q0 -43 13.5 -81t36 -66.5t52 -46t62.5 -17.5t62.5 17.5 t52 46t36 67.5t13.5 80q0 43 -13.5 81t-37 66.5t-53 46t-62.5 17.5q-31 0 -60.5 -17.5t-52 -47.5t-36 -67.5t-13.5 -78.5z" />
<glyph unicode="&#xb1;" horiz-adv-x="980" d="M66 0v150h849v-150h-849zM66 557v150h364v442h123v-442h362v-150h-362v-330h-123v330h-364z" />
<glyph unicode="&#xb2;" horiz-adv-x="559" d="M6 573q4 123 46 204t128 141l103 67q47 33 75.5 55.5t44 44t19.5 47t4 62.5q0 72 -37 110.5t-104 38.5q-74 0 -110 -50t-42 -163h-102q2 90 16 142.5t49 97.5q33 43 84 67.5t113 24.5q113 0 181.5 -76.5t68.5 -203.5q0 -47 -10.5 -85t-33 -72t-61.5 -65.5t-96 -68.5 l-76 -47q-49 -33 -79.5 -66t-53.5 -78h410v-127h-537z" />
<glyph unicode="&#xb3;" horiz-adv-x="559" d="M8 862h115q6 -104 39 -147t108 -43q76 0 117 44t41 122q0 80 -40 113.5t-132 33.5h-39v107h45q139 0 139 133q0 119 -131 118q-70 0 -102.5 -37.5t-38.5 -125.5h-102q12 283 252 282q111 0 175 -62.5t64 -166.5q0 -135 -104 -178q72 -29 101.5 -75t29.5 -128 q0 -135 -75 -217t-202 -82q-113 0 -180 72q-35 37 -53.5 90t-26.5 147z" />
<glyph unicode="&#xb4;" horiz-adv-x="559" d="M205 1214l149 289h183l-220 -289h-112z" />
<glyph unicode="&#xb5;" d="M115 -424v1495h147v-711q0 -233 170 -233q111 0 176.5 95t65.5 259v590h147v-1071h-139v166q-57 -109 -118.5 -153t-155.5 -44q-53 0 -85 16.5t-61 57.5v-467h-147z" />
<glyph unicode="&#xb6;" horiz-adv-x="901" d="M31 1090q0 184 100 282t289 98h416v-1824h-123v1702h-199v-1702h-123v1059q-88 4 -140 24.5t-104 67.5q-117 104 -116 293z" />
<glyph unicode="&#xb7;" horiz-adv-x="466" d="M129 518q0 53 31 90t76 37q41 0 72.5 -38t31.5 -91t-32 -90t-75 -37t-73.5 38t-30.5 91z" />
<glyph unicode="&#xb8;" horiz-adv-x="559" d="M76 -416l28 82q37 -18 58.5 -24.5t48.5 -6.5q96 0 96 86q0 35 -23.5 58.5t-58.5 23.5q-10 0 -23.5 -4t-39.5 -14l-29 39l107 176h79l-77 -127q4 2 10 2q14 4 22.5 5t20.5 1q63 0 101 -41t38 -112q0 -86 -54 -137.5t-142 -51.5q-39 0 -75 10.5t-87 34.5z" />
<glyph unicode="&#xb9;" horiz-adv-x="559" d="M72 1182v94q53 4 88 12t58.5 25.5t36.5 48.5t24 78h94v-865h-119v607h-182z" />
<glyph unicode="&#xba;" horiz-adv-x="612" d="M41 1167q0 166 69.5 254t200.5 88q123 0 192.5 -89t69.5 -249q0 -164 -68.5 -253t-197.5 -89q-127 0 -196.5 89.5t-69.5 248.5zM57 623v98h498v-98h-498zM154 1169q0 -113 39.5 -173t113.5 -60t114 60.5t40 174.5q0 111 -40 171.5t-116 60.5q-72 0 -111.5 -61.5 t-39.5 -172.5z" />
<glyph unicode="&#xbb;" d="M164 221v180l176 166l-176 166v180l262 -251v-189zM508 221v180l176 166l-176 166v180l262 -251v-189z" />
<glyph unicode="&#xbc;" horiz-adv-x="1400" d="M123 1188v88q53 4 88 12t58.5 25.5t36.5 48.5t24 78h90v-865h-115v613h-182zM258 -39l743 1479h97l-744 -1479h-96zM705 193v122l346 549h106v-553h113v-118h-113v-193h-106v193h-346zM809 311h242v389z" />
<glyph unicode="&#xbd;" horiz-adv-x="1400" d="M72 1182v94q53 4 88 12t58.5 25.5t36.5 48.5t24 78h94v-865h-119v607h-182zM199 -39l741 1479h96l-743 -1479h-94zM762 0q6 123 47 203t129 139l100 68q49 33 77 55t43.5 43.5t19.5 47.5t4 62q0 72 -37 111t-105 39q-74 0 -109.5 -51t-41.5 -162h-101q2 90 15.5 142.5 t48.5 97.5q33 43 85 67.5t112 24.5q113 0 181 -77t68 -204q0 -47 -10 -85t-32.5 -71.5t-61.5 -65.5t-96 -67l-76 -47q-94 -61 -133 -143h409v-127h-536z" />
<glyph unicode="&#xbe;" horiz-adv-x="1400" d="M76 862h114q6 -104 39 -147t111 -43q76 0 117 44t41 122q0 80 -40 113.5t-134 33.5h-39v107h45q139 0 139 133q0 119 -131 118q-70 0 -102.5 -37.5t-38.5 -125.5h-103q12 283 252 282q111 0 175.5 -62.5t64.5 -166.5q0 -135 -105 -178q72 -29 102.5 -75t30.5 -130 q0 -135 -75.5 -216t-200.5 -81q-111 0 -182 72q-35 37 -53.5 89t-26.5 148zM358 -39l742 1479h96l-743 -1479h-95zM795 193v122l346 549h106v-553h113v-118h-113v-193h-106v193h-346zM899 311h242v389z" />
<glyph unicode="&#xbf;" horiz-adv-x="1026" d="M154 -12q0 47 6 85t23.5 75.5t48 80.5t79.5 99q47 55 76 95t44 80t20.5 86t5.5 113h147q0 -80 -6 -135t-22.5 -101t-47 -93t-82.5 -111q-45 -55 -71.5 -92t-41 -64.5t-18.5 -54t-4 -61.5q0 -115 54.5 -179.5t150.5 -64.5q111 0 164 78t57 244h148q-2 -72 -8.5 -123 t-16.5 -90t-27.5 -71t-44.5 -63q-53 -66 -124.5 -99.5t-153.5 -33.5q-80 0 -145.5 30t-112.5 82t-72.5 126t-25.5 162zM444 866v209h164v-209h-164z" />
<glyph unicode="&#xc0;" horiz-adv-x="1120" d="M23 0l452 1470h187l436 -1470h-178l-119 428h-484l-127 -428h-167zM303 1903h182l150 -289h-113zM367 606h374l-180 651z" />
<glyph unicode="&#xc1;" horiz-adv-x="1120" d="M23 0l452 1470h187l436 -1470h-178l-119 428h-484l-127 -428h-167zM367 606h374l-180 651zM485 1614l150 289h182l-219 -289h-113z" />
<glyph unicode="&#xc2;" horiz-adv-x="1120" d="M23 0l452 1470h187l436 -1470h-178l-119 428h-484l-127 -428h-167zM315 1614l166 289h158l166 -289h-135l-111 190l-110 -190h-134zM367 606h374l-180 651z" />
<glyph unicode="&#xc3;" horiz-adv-x="1120" d="M23 0l452 1470h187l436 -1470h-178l-119 428h-484l-127 -428h-167zM272 1640q16 115 58.5 167.5t115.5 52.5q53 0 115 -31l37 -19q51 -27 84 -26q33 0 50.5 21.5t27.5 72.5h84q-31 -223 -170 -223q-18 0 -40 5t-56 21l-43 19q-41 16 -63.5 23.5t-39.5 7.5 q-31 0 -48 -19.5t-32 -71.5h-80zM367 606h374l-180 651z" />
<glyph unicode="&#xc4;" horiz-adv-x="1120" d="M23 0l452 1470h187l436 -1470h-178l-119 428h-484l-127 -428h-167zM346 1636v209h154v-209h-154zM367 606h374l-180 651zM616 1636v209h154v-209h-154z" />
<glyph unicode="&#xc5;" horiz-adv-x="1120" d="M23 0l452 1470h187l436 -1470h-178l-119 428h-484l-127 -428h-167zM367 606h374l-180 651zM406 1745q0 84 43.5 136t111.5 52q66 0 110 -54t44 -134q0 -82 -44 -135.5t-112 -53.5q-66 0 -109.5 53.5t-43.5 135.5zM473 1745q0 -45 25.5 -76t60.5 -31q37 0 62.5 31t25.5 76 t-25.5 75.5t-62.5 30.5q-35 0 -60.5 -30.5t-25.5 -75.5z" />
<glyph unicode="&#xc6;" horiz-adv-x="1679" d="M14 0l490 1470h1081v-178h-653v-448h596v-178h-596v-488h665v-178h-829v428h-444l-134 -428h-176zM381 606h387v686h-164z" />
<glyph unicode="&#xc7;" horiz-adv-x="1212" d="M74 733q0 178 39 322.5t112.5 245t178 154.5t233.5 54q141 0 248.5 -62.5t173.5 -180.5q31 -55 46 -105.5t25 -132.5h-157q-10 45 -21.5 80t-25 61.5t-31.5 48t-43 42.5q-41 35 -96.5 53t-114.5 18q-188 0 -293.5 -159.5t-105.5 -446.5q0 -281 101 -434.5t288 -153.5 q174 0 270 158q31 47 48.5 100.5t35.5 145.5h158q-20 -111 -43 -189t-53.5 -135t-72.5 -100t-102 -84q-113 -70 -249 -72l-54 -88q4 2 11 2q14 4 22 5t21 1q63 0 101 -41t38 -112q0 -84 -54.5 -136.5t-142.5 -52.5q-41 0 -75.5 10.5t-86.5 34.5l29 82q37 -18 58.5 -24.5 t48.5 -6.5q96 0 96 86q0 35 -23.5 58.5t-58.5 23.5q-10 0 -23.5 -4t-42.5 -14l-28 39l88 141q-223 35 -348 236.5t-125 531.5z" />
<glyph unicode="&#xc8;" horiz-adv-x="1120" d="M145 0v1470h877v-178h-713v-448h658v-178h-658v-488h725v-178h-889zM305 1903h182l150 -289h-113z" />
<glyph unicode="&#xc9;" horiz-adv-x="1120" d="M145 0v1470h877v-178h-713v-448h658v-178h-658v-488h725v-178h-889zM485 1614l150 289h182l-219 -289h-113z" />
<glyph unicode="&#xca;" horiz-adv-x="1120" d="M145 0v1470h877v-178h-713v-448h658v-178h-658v-488h725v-178h-889zM317 1614l166 289h158l166 -289h-135l-111 190l-110 -190h-134z" />
<glyph unicode="&#xcb;" horiz-adv-x="1120" d="M145 0v1470h877v-178h-713v-448h658v-178h-658v-488h725v-178h-889zM348 1636v209h154v-209h-154zM618 1636v209h154v-209h-154z" />
<glyph unicode="&#xcc;" horiz-adv-x="466" d="M-23 1903h183l149 -289h-112zM152 0v1470h161v-1470h-161z" />
<glyph unicode="&#xcd;" horiz-adv-x="466" d="M154 0v1470h161v-1470h-161zM160 1561l149 288h183l-220 -288h-112z" />
<glyph unicode="&#xce;" horiz-adv-x="466" d="M-10 1614l166 289h157l166 -289h-135l-111 190l-110 -190h-133zM154 0v1470h161v-1470h-161z" />
<glyph unicode="&#xcf;" horiz-adv-x="466" d="M23 1636v209h153v-209h-153zM154 0v1470h163v-1470h-163zM293 1636v209h153v-209h-153z" />
<glyph unicode="&#xd0;" horiz-adv-x="1212" d="M0 666v178h135v626h492q115 0 208 -51t159.5 -143t102.5 -223t36 -291t-34 -300t-93 -241q-137 -221 -388 -221h-483v666h-135zM299 170h317q162 0 255.5 150.5t93.5 414.5q0 274 -93.5 419.5t-267.5 145.5h-305v-456h324v-178h-324v-496z" />
<glyph unicode="&#xd1;" horiz-adv-x="1212" d="M127 0v1470h192l609 -1194v1194h157v-1470h-182l-618 1194v-1194h-158zM338 1640q16 115 58 167.5t116 52.5q53 0 115 -31l37 -19q51 -27 84 -26q33 0 50 21.5t27 72.5h84q-31 -223 -170 -223q-18 0 -39.5 5t-56.5 21l-43 19q-41 16 -63.5 23.5t-38.5 7.5 q-31 0 -48.5 -19.5t-31.5 -71.5h-80z" />
<glyph unicode="&#xd2;" horiz-adv-x="1306" d="M66 733q0 176 47 328.5t135 261.5q152 186 414 186q166 0 289.5 -86t201.5 -252q41 -94 64.5 -206.5t23.5 -231.5q0 -174 -47 -324.5t-135 -261.5q-72 -92 -176.5 -139t-229.5 -47t-229.5 47t-175.5 139q-88 111 -135 261.5t-47 324.5zM233 735q0 -135 30 -244.5 t85 -187.5t133 -121t172 -43t172 43t133.5 121t85 187.5t29.5 244.5t-30.5 245t-86 188.5t-133.5 120.5t-174 42q-92 0 -169 -43t-132 -122t-85 -188.5t-30 -242.5zM397 1903h183l149 -289h-113z" />
<glyph unicode="&#xd3;" horiz-adv-x="1306" d="M66 733q0 176 47 328.5t135 261.5q152 186 414 186q166 0 289.5 -86t201.5 -252q41 -94 64.5 -206.5t23.5 -231.5q0 -174 -47 -324.5t-135 -261.5q-72 -92 -176.5 -139t-229.5 -47t-229.5 47t-175.5 139q-88 111 -135 261.5t-47 324.5zM233 735q0 -135 30 -244.5 t85 -187.5t133 -121t172 -43t172 43t133.5 121t85 187.5t29.5 244.5t-30.5 245t-86 188.5t-133.5 120.5t-174 42q-92 0 -169 -43t-132 -122t-85 -188.5t-30 -242.5zM580 1614l149 289h182l-219 -289h-112z" />
<glyph unicode="&#xd4;" horiz-adv-x="1306" d="M66 733q0 176 47 328.5t135 261.5q152 186 414 186q166 0 289.5 -86t201.5 -252q41 -94 64.5 -206.5t23.5 -231.5q0 -174 -47 -324.5t-135 -261.5q-72 -92 -176.5 -139t-229.5 -47t-229.5 47t-175.5 139q-88 111 -135 261.5t-47 324.5zM233 735q0 -135 30 -244.5 t85 -187.5t133 -121t172 -43t172 43t133.5 121t85 187.5t29.5 244.5t-30.5 245t-86 188.5t-133.5 120.5t-174 42q-92 0 -169 -43t-132 -122t-85 -188.5t-30 -242.5zM410 1614l165 289h158l166 -289h-135l-111 190l-110 -190h-133z" />
<glyph unicode="&#xd5;" horiz-adv-x="1306" d="M66 733q0 176 47 328.5t135 261.5q152 186 414 186q166 0 289.5 -86t201.5 -252q41 -94 64.5 -206.5t23.5 -231.5q0 -174 -47 -324.5t-135 -261.5q-72 -92 -176.5 -139t-229.5 -47t-229.5 47t-175.5 139q-88 111 -135 261.5t-47 324.5zM233 735q0 -135 30 -244.5 t85 -187.5t133 -121t172 -43t172 43t133.5 121t85 187.5t29.5 244.5t-30.5 245t-86 188.5t-133.5 120.5t-174 42q-92 0 -169 -43t-132 -122t-85 -188.5t-30 -242.5zM369 1640q16 115 58 167.5t116 52.5q53 0 114 -31l37 -19q51 -27 84 -26q33 0 50.5 21.5t27.5 72.5h84 q-31 -223 -170 -223q-18 0 -39.5 5t-56.5 21l-43 19q-41 16 -63.5 23.5t-39.5 7.5q-31 0 -48 -19.5t-31 -71.5h-80z" />
<glyph unicode="&#xd6;" horiz-adv-x="1306" d="M66 733q0 176 47 328.5t135 261.5q152 186 414 186q166 0 289.5 -86t201.5 -252q41 -94 64.5 -206.5t23.5 -231.5q0 -174 -47 -324.5t-135 -261.5q-72 -92 -176.5 -139t-229.5 -47t-229.5 47t-175.5 139q-88 111 -135 261.5t-47 324.5zM233 735q0 -135 30 -244.5 t85 -187.5t133 -121t172 -43t172 43t133.5 121t85 187.5t29.5 244.5t-30.5 245t-86 188.5t-133.5 120.5t-174 42q-92 0 -169 -43t-132 -122t-85 -188.5t-30 -242.5zM442 1636v209h154v-209h-154zM713 1636v209h153v-209h-153z" />
<glyph unicode="&#xd7;" horiz-adv-x="980" d="M66 104l340 414l-340 414l88 104l335 -411l340 411l86 -104l-337 -414l337 -414l-86 -104l-340 412l-337 -412z" />
<glyph unicode="&#xd8;" horiz-adv-x="1306" d="M66 737q0 174 47 324.5t135 261.5q72 92 176 139t231 47q125 0 218.5 -42t181.5 -140l137 182l51 -61l-139 -186q72 -129 104.5 -252t32.5 -277q0 -174 -47 -324.5t-135 -261.5q-72 -92 -176.5 -139t-231.5 -47q-123 0 -214 41t-179 137l-135 -178l-53 57l139 185 q-78 127 -110.5 253t-32.5 281zM233 735q0 -115 19.5 -203t66.5 -182l629 834q-66 78 -134.5 112.5t-158.5 34.5q-96 0 -174 -43t-133 -120.5t-85 -187.5t-30 -245zM365 283q66 -78 132 -111t154 -33q94 0 172 43t133.5 121t86 187.5t30.5 244.5q0 115 -18.5 201t-63.5 176z " />
<glyph unicode="&#xd9;" horiz-adv-x="1212" d="M133 489v981h164v-925q0 -197 80 -301.5t227 -104.5q150 0 232 104.5t82 297.5v929h163v-954q0 -127 -33.5 -229.5t-97 -175t-152.5 -111.5t-200 -39q-106 0 -192.5 37t-146.5 105.5t-93 167t-33 218.5zM352 1903h183l149 -289h-113z" />
<glyph unicode="&#xda;" horiz-adv-x="1212" d="M133 489v981h164v-925q0 -197 80 -301.5t227 -104.5q150 0 232 104.5t82 297.5v929h163v-954q0 -127 -33.5 -229.5t-97 -175t-152.5 -111.5t-200 -39q-106 0 -192.5 37t-146.5 105.5t-93 167t-33 218.5zM532 1614l150 289h182l-219 -289h-113z" />
<glyph unicode="&#xdb;" horiz-adv-x="1212" d="M133 489v981h164v-925q0 -197 80 -301.5t227 -104.5q150 0 232 104.5t82 297.5v929h163v-954q0 -127 -33.5 -229.5t-97 -175t-152.5 -111.5t-200 -39q-106 0 -192.5 37t-146.5 105.5t-93 167t-33 218.5zM362 1614l166 289h158l166 -289h-135l-111 190l-110 -190h-134z " />
<glyph unicode="&#xdc;" horiz-adv-x="1212" d="M133 489v981h164v-925q0 -197 80 -301.5t227 -104.5q150 0 232 104.5t82 297.5v929h163v-954q0 -127 -33.5 -229.5t-97 -175t-152.5 -111.5t-200 -39q-106 0 -192.5 37t-146.5 105.5t-93 167t-33 218.5zM395 1636v209h154v-209h-154zM666 1636v209h153v-209h-153z" />
<glyph unicode="&#xdd;" horiz-adv-x="1120" d="M23 1470h190l346 -706l346 706h191l-455 -878v-592h-164v592zM483 1614l150 289h182l-219 -289h-113z" />
<glyph unicode="&#xde;" horiz-adv-x="1120" d="M145 0v1470h164v-243h377q80 0 146.5 -30t113.5 -84t72.5 -131t25.5 -171q0 -98 -25.5 -178t-72.5 -137.5t-112.5 -88t-147.5 -30.5h-377v-377h-164zM309 547h322q246 0 246 258q0 252 -240 252h-328v-510z" />
<glyph unicode="&#xdf;" horiz-adv-x="1026" d="M113 0v1090q0 190 103 295.5t290 105.5q182 0 288.5 -100.5t106.5 -272.5q0 -100 -32.5 -169.5t-104.5 -129.5q94 -41 144 -134t50 -228q0 -100 -29.5 -192.5t-82.5 -160.5q-51 -66 -131 -100.5t-178 -34.5q-27 0 -42.5 2t-41.5 11l-7 2v153q16 -4 36 -6t36 -2 q287 0 287 309q0 147 -70.5 217t-218.5 70q-35 0 -61 -8v162q10 -2 20 -3.5t21 -1.5q125 0 191.5 58.5t66.5 169.5q0 109 -68 170t-186 61q-127 0 -183.5 -67.5t-56.5 -221.5v-1044h-147z" />
<glyph unicode="&#xe0;" d="M61 283q0 141 69 226t198 105l243 37q41 6 59.5 35t18.5 88q0 178 -203 178q-98 0 -144 -46t-62 -161h-136q4 82 16.5 130.5t41.5 91.5q88 135 295 135q158 0 247 -79t89 -220v-617q0 -63 47 -63q10 0 17 1t24 5l10 2v-131q-4 -2 -7 -2t-12 -4q-37 -14 -67 -14 q-76 0 -109.5 36.5t-42.5 126.5q-72 -92 -144.5 -133t-166.5 -41q-129 0 -205 85t-76 229zM213 1503h182l150 -289h-113zM215 299q0 -180 158 -180q55 0 104 20.5t87 54t59.5 79.5t21.5 98v176q-12 -10 -27.5 -18.5t-42 -15.5t-68.5 -15.5t-106 -18.5q-100 -16 -143 -58 t-43 -122z" />
<glyph unicode="&#xe1;" d="M61 283q0 141 69 226t198 105l243 37q41 6 59.5 35t18.5 88q0 178 -203 178q-98 0 -144 -46t-62 -161h-136q4 82 16.5 130.5t41.5 91.5q88 135 295 135q158 0 247 -79t89 -220v-617q0 -63 47 -63q10 0 17 1t24 5l10 2v-131q-4 -2 -7 -2t-12 -4q-37 -14 -67 -14 q-76 0 -109.5 36.5t-42.5 126.5q-72 -92 -144.5 -133t-166.5 -41q-129 0 -205 85t-76 229zM215 299q0 -180 158 -180q55 0 104 20.5t87 54t59.5 79.5t21.5 98v176q-12 -10 -27.5 -18.5t-42 -15.5t-68.5 -15.5t-106 -18.5q-100 -16 -143 -58t-43 -122zM393 1214l150 289h182 l-219 -289h-113z" />
<glyph unicode="&#xe2;" d="M61 283q0 141 69 226t198 105l243 37q41 6 59.5 35t18.5 88q0 178 -203 178q-98 0 -144 -46t-62 -161h-136q4 82 16.5 130.5t41.5 91.5q88 135 295 135q158 0 247 -79t89 -220v-617q0 -63 47 -63q10 0 17 1t24 5l10 2v-131q-4 -2 -7 -2t-12 -4q-37 -14 -67 -14 q-76 0 -109.5 36.5t-42.5 126.5q-72 -92 -144.5 -133t-166.5 -41q-129 0 -205 85t-76 229zM215 299q0 -180 158 -180q55 0 104 20.5t87 54t59.5 79.5t21.5 98v176q-12 -10 -27.5 -18.5t-42 -15.5t-68.5 -15.5t-106 -18.5q-100 -16 -143 -58t-43 -122zM225 1214l166 289h158 l166 -289h-135l-111 191l-111 -191h-133z" />
<glyph unicode="&#xe3;" d="M61 283q0 141 69 226t198 105l243 37q41 6 59.5 35t18.5 88q0 178 -203 178q-98 0 -144 -46t-62 -161h-136q4 82 16.5 130.5t41.5 91.5q88 135 295 135q158 0 247 -79t89 -220v-617q0 -63 47 -63q10 0 17 1t24 5l10 2v-131q-4 -2 -7 -2t-12 -4q-37 -14 -67 -14 q-76 0 -109.5 36.5t-42.5 126.5q-72 -92 -144.5 -133t-166.5 -41q-129 0 -205 85t-76 229zM166 1241q16 115 58 167t116 52q53 0 115 -30l37 -19q51 -27 83 -27q33 0 50.5 21.5t27.5 73.5h84q-31 -223 -170 -224q-18 0 -39.5 5.5t-56.5 21.5l-43 18q-41 16 -63.5 23.5 t-38.5 7.5q-31 0 -48.5 -19.5t-31.5 -70.5h-80zM215 299q0 -180 158 -180q55 0 104 20.5t87 54t59.5 79.5t21.5 98v176q-12 -10 -27.5 -18.5t-42 -15.5t-68.5 -15.5t-106 -18.5q-100 -16 -143 -58t-43 -122z" />
<glyph unicode="&#xe4;" d="M61 283q0 141 69 226t198 105l243 37q41 6 59.5 35t18.5 88q0 178 -203 178q-98 0 -144 -46t-62 -161h-136q4 82 16.5 130.5t41.5 91.5q88 135 295 135q158 0 247 -79t89 -220v-617q0 -63 47 -63q10 0 17 1t24 5l10 2v-131q-4 -2 -7 -2t-12 -4q-37 -14 -67 -14 q-76 0 -109.5 36.5t-42.5 126.5q-72 -92 -144.5 -133t-166.5 -41q-129 0 -205 85t-76 229zM215 299q0 -180 158 -180q55 0 104 20.5t87 54t59.5 79.5t21.5 98v176q-12 -10 -27.5 -18.5t-42 -15.5t-68.5 -15.5t-106 -18.5q-100 -16 -143 -58t-43 -122zM256 1237v209h154v-209 h-154zM526 1237v209h154v-209h-154z" />
<glyph unicode="&#xe5;" d="M61 283q0 141 69 226t198 105l243 37q41 6 59.5 35t18.5 88q0 178 -203 178q-98 0 -144 -46t-62 -161h-136q4 82 16.5 130.5t41.5 91.5q88 135 295 135q158 0 247 -79t89 -220v-617q0 -63 47 -63q10 0 17 1t24 5l10 2v-131q-4 -2 -7 -2t-12 -4q-37 -14 -67 -14 q-76 0 -109.5 36.5t-42.5 126.5q-72 -92 -144.5 -133t-166.5 -41q-129 0 -205 85t-76 229zM215 299q0 -180 158 -180q55 0 104 20.5t87 54t59.5 79.5t21.5 98v176q-12 -10 -27.5 -18.5t-42 -15.5t-68.5 -15.5t-106 -18.5q-100 -16 -143 -58t-43 -122zM315 1386 q0 84 44 136.5t112 52.5q66 0 110 -54.5t44 -134.5q0 -82 -44 -135t-112 -53q-66 0 -110 53.5t-44 134.5zM383 1386q0 -45 25.5 -75.5t60.5 -30.5q37 0 62.5 30.5t25.5 75.5t-25.5 76t-62.5 31q-35 0 -60.5 -30.5t-25.5 -76.5z" />
<glyph unicode="&#xe6;" horiz-adv-x="1492" d="M61 283q0 141 69 226t198 105l243 37q41 6 59.5 35t18.5 88q0 178 -203 178q-98 0 -144 -46t-62 -161h-136q4 82 16.5 130.5t41.5 91.5q86 135 305 135q49 0 87 -7.5t70.5 -24.5t62.5 -46t65 -74q37 43 68.5 72t65.5 47t70.5 25.5t83.5 7.5q211 0 312 -217 q18 -39 30.5 -78t20.5 -87t13 -106.5t7 -136.5h-643q4 -92 15.5 -145t40.5 -99q66 -106 194 -106q92 0 156.5 58.5t77.5 150.5h147q-29 -174 -137 -277q-49 -47 -109.5 -68.5t-140.5 -21.5q-121 0 -196.5 51.5t-133.5 172.5q-29 -49 -49 -76t-45 -51q-102 -96 -250 -97 q-135 0 -212 84t-77 230zM215 299q0 -180 158 -180q55 0 104 20.5t87 54t59.5 79.5t21.5 98v176q-10 -10 -25.5 -18.5t-43 -15.5t-68.5 -15.5t-105 -18.5q-102 -16 -145 -58t-43 -122zM780 621h490q-8 86 -20.5 135t-39.5 90q-63 96 -178 96q-106 0 -175 -88t-77 -233z" />
<glyph unicode="&#xe7;" horiz-adv-x="839" d="M51 516q0 135 30 242.5t83 184.5t130 118t173 41q295 0 334 -391h-144q-18 123 -67 177t-137 54q-117 0 -180.5 -107.5t-63.5 -304.5q0 -199 60.5 -302t172.5 -103q170 0 215 254h144q-20 -197 -114.5 -304.5t-244.5 -105.5l-59 -96l10 2q14 4 22.5 5t20.5 1 q66 0 102.5 -41t36.5 -112q0 -86 -54 -137.5t-142 -51.5q-39 0 -75 10.5t-87 34.5l29 82q37 -18 58.5 -24.5t47.5 -6.5q96 0 97 86q0 35 -24 58.5t-58 23.5q-10 0 -22.5 -4t-41.5 -14l-29 39l93 153q-147 31 -231.5 174.5t-84.5 364.5z" />
<glyph unicode="&#xe8;" d="M68 516q0 135 29.5 242.5t82.5 184.5t130 118t173 41q111 0 185.5 -53.5t126.5 -163.5q18 -39 30.5 -79t20.5 -87t13 -106.5t7 -135.5h-641q4 -92 15.5 -145t40.5 -99q63 -106 194 -106q90 0 155.5 58.5t76.5 150.5h147q-29 -174 -129 -270.5t-254 -96.5 q-188 0 -295.5 145.5t-107.5 401.5zM211 1503h182l150 -289h-113zM225 621h488q-6 86 -18.5 135t-41.5 90q-61 96 -176 96q-106 0 -176 -88t-76 -233z" />
<glyph unicode="&#xe9;" d="M68 516q0 135 29.5 242.5t82.5 184.5t130 118t173 41q111 0 185.5 -53.5t126.5 -163.5q18 -39 30.5 -79t20.5 -87t13 -106.5t7 -135.5h-641q4 -92 15.5 -145t40.5 -99q63 -106 194 -106q90 0 155.5 58.5t76.5 150.5h147q-29 -174 -129 -270.5t-254 -96.5 q-188 0 -295.5 145.5t-107.5 401.5zM225 621h488q-6 86 -18.5 135t-41.5 90q-61 96 -176 96q-106 0 -176 -88t-76 -233zM393 1214l150 289h182l-219 -289h-113z" />
<glyph unicode="&#xea;" d="M68 516q0 135 29.5 242.5t82.5 184.5t130 118t173 41q111 0 185.5 -53.5t126.5 -163.5q18 -39 30.5 -79t20.5 -87t13 -106.5t7 -135.5h-641q4 -92 15.5 -145t40.5 -99q63 -106 194 -106q90 0 155.5 58.5t76.5 150.5h147q-29 -174 -129 -270.5t-254 -96.5 q-188 0 -295.5 145.5t-107.5 401.5zM223 1214l166 289h158l166 -289h-135l-111 191l-111 -191h-133zM225 621h488q-6 86 -18.5 135t-41.5 90q-61 96 -176 96q-106 0 -176 -88t-76 -233z" />
<glyph unicode="&#xeb;" d="M68 516q0 135 29.5 242.5t82.5 184.5t130 118t173 41q111 0 185.5 -53.5t126.5 -163.5q18 -39 30.5 -79t20.5 -87t13 -106.5t7 -135.5h-641q4 -92 15.5 -145t40.5 -99q63 -106 194 -106q90 0 155.5 58.5t76.5 150.5h147q-29 -174 -129 -270.5t-254 -96.5 q-188 0 -295.5 145.5t-107.5 401.5zM225 621h488q-6 86 -18.5 135t-41.5 90q-61 96 -176 96q-106 0 -176 -88t-76 -233zM256 1237v209h154v-209h-154zM526 1237v209h154v-209h-154z" />
<glyph unicode="&#xec;" horiz-adv-x="466" d="M-23 1503h183l149 -289h-112zM160 0v1071h147v-1071h-147z" />
<glyph unicode="&#xed;" horiz-adv-x="466" d="M160 0v1071h147v-1071h-147zM160 1214l149 289h183l-220 -289h-112z" />
<glyph unicode="&#xee;" horiz-adv-x="466" d="M-10 1214l166 289h157l166 -289h-135l-111 191l-110 -191h-133zM160 0v1071h147v-1071h-147z" />
<glyph unicode="&#xef;" horiz-adv-x="466" d="M23 1237v209h153v-209h-153zM160 0v1071h147v-1071h-147zM293 1237v209h153v-209h-153z" />
<glyph unicode="&#xf0;" d="M59 518q0 121 29 222.5t81 175t124 114.5t156 41q72 0 120.5 -26.5t106.5 -96.5q-31 92 -76 163t-117 142l-207 -127l-71 86l198 117q-37 35 -71.5 59.5t-77.5 47.5l125 73q47 -23 81 -46t70 -58l179 104l79 -82l-180 -104q43 -53 74 -95t53.5 -82t41 -81t36.5 -90 q33 -92 48.5 -184.5t15.5 -196.5q0 -143 -29 -259t-81 -197t-128 -125t-168 -44q-90 0 -166 41t-130 114t-85 173t-31 221zM213 520q0 -78 18.5 -152.5t49.5 -127.5q70 -113 186 -113q139 0 207 152q23 47 36 113.5t13 127.5q0 76 -18.5 152t-49.5 129q-69 112 -190 112 q-55 0 -101.5 -29.5t-80 -81.5t-52 -124t-18.5 -158z" />
<glyph unicode="&#xf1;" d="M109 0v1071h139v-158q57 100 122.5 144.5t157.5 44.5q141 0 219 -97.5t78 -275.5v-729h-147v659q0 147 -43 215t-137 68q-113 0 -177.5 -95t-64.5 -263v-584h-147zM164 1241q16 115 58 167t116 52q53 0 115 -30l36 -19q51 -27 84 -27t50.5 21.5t27.5 73.5h84 q-31 -223 -170 -224q-18 0 -39.5 5.5t-56.5 21.5l-43 18q-41 16 -63.5 23.5t-38.5 7.5q-31 0 -48.5 -19.5t-31.5 -70.5h-80z" />
<glyph unicode="&#xf2;" d="M59 535q0 127 30 231t84 179t131 116t169 41q88 0 162 -42t127 -117t82.5 -178t29.5 -228t-29.5 -229.5t-83.5 -179.5t-129 -116t-165 -41t-166 41t-129 116t-83 178.5t-30 228.5zM213 537q0 -186 68.5 -297t185.5 -111t185.5 110.5t68.5 297.5q0 188 -69.5 297.5 t-186.5 109.5q-57 0 -104.5 -28.5t-80 -83t-50 -129t-17.5 -166.5zM213 1503h182l150 -289h-113z" />
<glyph unicode="&#xf3;" d="M59 535q0 127 30 231t84 179t131 116t169 41q88 0 162 -42t127 -117t82.5 -178t29.5 -228t-29.5 -229.5t-83.5 -179.5t-129 -116t-165 -41t-166 41t-129 116t-83 178.5t-30 228.5zM213 537q0 -186 68.5 -297t185.5 -111t185.5 110.5t68.5 297.5q0 188 -69.5 297.5 t-186.5 109.5q-57 0 -104.5 -28.5t-80 -83t-50 -129t-17.5 -166.5zM393 1214l150 289h182l-219 -289h-113z" />
<glyph unicode="&#xf4;" d="M59 535q0 127 30 231t84 179t131 116t169 41q88 0 162 -42t127 -117t82.5 -178t29.5 -228t-29.5 -229.5t-83.5 -179.5t-129 -116t-165 -41t-166 41t-129 116t-83 178.5t-30 228.5zM213 537q0 -186 68.5 -297t185.5 -111t185.5 110.5t68.5 297.5q0 188 -69.5 297.5 t-186.5 109.5q-57 0 -104.5 -28.5t-80 -83t-50 -129t-17.5 -166.5zM223 1214l166 289h158l166 -289h-135l-111 191l-111 -191h-133z" />
<glyph unicode="&#xf5;" d="M59 535q0 127 30 231t84 179t131 116t169 41q88 0 162 -42t127 -117t82.5 -178t29.5 -228t-29.5 -229.5t-83.5 -179.5t-129 -116t-165 -41t-166 41t-129 116t-83 178.5t-30 228.5zM182 1241q16 115 58.5 167t115.5 52q53 0 115 -30l37 -19q51 -27 84 -27t50 21.5t28 73.5 h84q-31 -223 -170 -224q-18 0 -40 5.5t-57 21.5l-43 18q-41 16 -63.5 23.5t-38.5 7.5q-31 0 -48.5 -19.5t-31.5 -70.5h-80zM213 537q0 -186 68.5 -297t185.5 -111t185.5 110.5t68.5 297.5q0 188 -69.5 297.5t-186.5 109.5q-57 0 -104.5 -28.5t-80 -83t-50 -129t-17.5 -166.5 z" />
<glyph unicode="&#xf6;" d="M59 535q0 127 30 231t84 179t131 116t169 41q88 0 162 -42t127 -117t82.5 -178t29.5 -228t-29.5 -229.5t-83.5 -179.5t-129 -116t-165 -41t-166 41t-129 116t-83 178.5t-30 228.5zM213 537q0 -186 68.5 -297t185.5 -111t185.5 110.5t68.5 297.5q0 188 -69.5 297.5 t-186.5 109.5q-57 0 -104.5 -28.5t-80 -83t-50 -129t-17.5 -166.5zM256 1237v209h154v-209h-154zM526 1237v209h154v-209h-154z" />
<glyph unicode="&#xf7;" horiz-adv-x="980" d="M66 442v150h849v-150h-849zM377 100q0 59 35 99.5t82 40.5q45 0 78.5 -41t33.5 -97q0 -57 -33.5 -99t-80.5 -42t-81 41t-34 98zM377 934q0 59 35 99t82 40q45 0 78.5 -41t33.5 -96q0 -57 -33.5 -99t-80.5 -42t-81 41t-34 98z" />
<glyph unicode="&#xf8;" horiz-adv-x="1026" d="M47 8l107 148q-49 92 -72 181t-23 200q0 125 30 229t84 179t129 116t167 41q84 0 146.5 -31t125.5 -102l109 147l51 -53l-117 -160q47 -90 68.5 -175t21.5 -191q0 -127 -29.5 -230.5t-83.5 -178.5t-129 -116t-167 -41q-82 0 -143.5 29t-120.5 94l-103 -139zM213 537 q0 -66 9 -124.5t32 -119.5l395 547q-39 55 -81 79.5t-101 24.5q-117 0 -185.5 -110.5t-68.5 -296.5zM293 221q35 -49 76 -70.5t96 -21.5q117 0 186.5 110.5t69.5 297.5q0 63 -8 115.5t-29 111.5z" />
<glyph unicode="&#xf9;" d="M115 301v770h147v-711q0 -233 170 -233q111 0 176.5 95t65.5 259v590h147v-1071h-139v166q-29 -55 -57.5 -93t-61.5 -60.5t-71.5 -33t-88.5 -10.5q-137 0 -212.5 87t-75.5 245zM213 1503h182l150 -289h-113z" />
<glyph unicode="&#xfa;" d="M115 301v770h147v-711q0 -233 170 -233q111 0 176.5 95t65.5 259v590h147v-1071h-139v166q-29 -55 -57.5 -93t-61.5 -60.5t-71.5 -33t-88.5 -10.5q-137 0 -212.5 87t-75.5 245zM393 1214l150 289h182l-219 -289h-113z" />
<glyph unicode="&#xfb;" d="M115 301v770h147v-711q0 -233 170 -233q111 0 176.5 95t65.5 259v590h147v-1071h-139v166q-29 -55 -57.5 -93t-61.5 -60.5t-71.5 -33t-88.5 -10.5q-137 0 -212.5 87t-75.5 245zM223 1214l166 289h158l166 -289h-135l-111 191l-111 -191h-133z" />
<glyph unicode="&#xfc;" d="M115 301v770h147v-711q0 -233 170 -233q111 0 176.5 95t65.5 259v590h147v-1071h-139v166q-29 -55 -57.5 -93t-61.5 -60.5t-71.5 -33t-88.5 -10.5q-137 0 -212.5 87t-75.5 245zM256 1237v209h154v-209h-154zM526 1237v209h154v-209h-154z" />
<glyph unicode="&#xfd;" horiz-adv-x="839" d="M18 1071h166l236 -878l237 878h164q-47 -160 -79.5 -272.5t-57.5 -195.5t-44 -145.5t-38.5 -126t-42 -136t-55.5 -175.5q-49 -160 -83 -251t-68 -137t-75.5 -58t-107.5 -12q-16 0 -27.5 2t-31.5 10l-13 4v164q45 -18 90 -18q47 0 71 27.5t48 109.5q10 29 18.5 56.5 t18.5 53.5zM346 1214l150 289h182l-219 -289h-113z" />
<glyph unicode="&#xfe;" d="M98 -424v1894h148v-552q53 100 111.5 142t146.5 42q82 0 149.5 -39t114.5 -109.5t73.5 -170t26.5 -222.5q0 -135 -27.5 -243.5t-77.5 -186.5t-121 -120t-157 -42q-82 0 -138 36t-101 114v-543h-148zM240 498q0 -174 64.5 -272.5t176.5 -98.5q111 0 172.5 110.5 t61.5 315.5q0 389 -240 389q-117 0 -176 -112.5t-59 -331.5z" />
<glyph unicode="&#xff;" horiz-adv-x="839" d="M18 1071h166l236 -878l237 878h164q-47 -160 -79.5 -272.5t-57.5 -195.5t-44 -145.5t-38.5 -126t-42 -136t-55.5 -175.5q-49 -160 -83 -251t-68 -137t-75.5 -58t-107.5 -12q-16 0 -27.5 2t-31.5 10l-13 4v164q45 -18 90 -18q47 0 71 27.5t48 109.5q10 29 18.5 56.5 t18.5 53.5zM209 1237v209h153v-209h-153zM479 1237v209h154v-209h-154z" />
<glyph unicode="&#x152;" horiz-adv-x="1679" d="M61 719q0 180 36 326.5t102.5 249t161 158.5t210.5 56q55 0 98.5 -10t80 -33.5t68.5 -60.5t63 -92v157h735v-178h-584v-448h557v-178h-557v-488h588v-178h-741v160q-37 -57 -72 -95t-72 -61.5t-79 -33t-97 -9.5q-115 0 -206 53.5t-156.5 151.5t-100.5 238.5t-35 314.5z M229 702q0 -281 89.5 -426t261.5 -145q131 0 209.5 93t78.5 247v537q0 150 -79.5 240.5t-210.5 90.5q-170 0 -259.5 -162.5t-89.5 -474.5z" />
<glyph unicode="&#x153;" horiz-adv-x="1585" d="M59 537q0 125 30 229t83 179t129 116t166 41q111 0 188.5 -51.5t141.5 -165.5q70 119 144.5 168t188.5 49q111 0 187 -52.5t127 -164.5q18 -39 30.5 -78t20.5 -87t13 -106.5t8 -136.5h-644q2 -90 13.5 -143t40.5 -98q68 -109 198 -109q90 0 154.5 58.5t77.5 150.5h147 q-29 -174 -137 -277q-49 -47 -108.5 -68.5t-139.5 -21.5q-113 0 -189.5 47t-146.5 160q-51 -106 -124.5 -155.5t-184.5 -49.5q-92 0 -169 41t-131 115t-84 178.5t-30 231.5zM213 537q0 -186 69.5 -297t186.5 -111t185.5 110.5t68.5 297.5q0 188 -69.5 297.5t-188.5 109.5 q-57 0 -103.5 -28.5t-79 -83t-51 -129t-18.5 -166.5zM872 621h490q-6 86 -18.5 135t-40.5 90q-63 96 -177 96q-109 0 -178 -88t-76 -233z" />
<glyph unicode="&#x178;" horiz-adv-x="1120" d="M23 1470h190l346 -706l346 706h191l-455 -878v-592h-164v592zM346 1636v209h154v-209h-154zM616 1636v209h154v-209h-154z" />
<glyph unicode="&#x2c6;" horiz-adv-x="559" d="M35 1214l166 289h157l166 -289h-135l-110 191l-111 -191h-133z" />
<glyph unicode="&#x2dc;" horiz-adv-x="559" d="M-6 1241q16 115 58 167t116 52q53 0 115 -30l36 -19q51 -27 84 -27t50.5 21.5t27.5 73.5h84q-31 -223 -170 -224q-18 0 -39.5 5.5t-56.5 21.5l-43 18q-41 16 -63.5 23.5t-38.5 7.5q-31 0 -48.5 -19.5t-31.5 -70.5h-80z" />
<glyph unicode="&#x2000;" horiz-adv-x="966" />
<glyph unicode="&#x2001;" horiz-adv-x="1933" />
<glyph unicode="&#x2002;" horiz-adv-x="966" />
<glyph unicode="&#x2003;" horiz-adv-x="1933" />
<glyph unicode="&#x2004;" horiz-adv-x="644" />
<glyph unicode="&#x2005;" horiz-adv-x="483" />
<glyph unicode="&#x2006;" horiz-adv-x="322" />
<glyph unicode="&#x2007;" horiz-adv-x="322" />
<glyph unicode="&#x2008;" horiz-adv-x="241" />
<glyph unicode="&#x2009;" horiz-adv-x="386" />
<glyph unicode="&#x200a;" horiz-adv-x="107" />
<glyph unicode="&#x2010;" horiz-adv-x="559" d="M74 475v184h411v-184h-411z" />
<glyph unicode="&#x2011;" horiz-adv-x="559" d="M74 475v184h411v-184h-411z" />
<glyph unicode="&#x2012;" horiz-adv-x="559" d="M74 475v184h411v-184h-411z" />
<glyph unicode="&#x2013;" d="M0 492v149h934v-149h-934z" />
<glyph unicode="&#x2014;" horiz-adv-x="1679" d="M0 492v149h1679v-149h-1679z" />
<glyph unicode="&#x2018;" horiz-adv-x="372" d="M109 961v202q0 70 9 123t30.5 91t55.5 64.5t81 43.5v-96q-49 -10 -69.5 -59.5t-20.5 -149.5h90v-219h-176z" />
<glyph unicode="&#x2019;" horiz-adv-x="372" d="M88 946v96q49 10 69.5 59.5t20.5 149.5h-90v219h176v-202q0 -141 -41 -215t-135 -107z" />
<glyph unicode="&#x201a;" horiz-adv-x="372" d="M88 0v219h176v-203q0 -141 -41 -214.5t-135 -106.5v96q49 10 69.5 59.5t20.5 149.5h-90z" />
<glyph unicode="&#x201c;" horiz-adv-x="559" d="M63 961v202q0 141 40 214t135 108v-96q-47 -10 -69 -59.5t-19 -149.5h88v-219h-175zM342 961v202q0 70 9 123t29.5 91t54.5 64.5t81 43.5v-96q-47 -10 -68.5 -58.5t-19.5 -150.5h88v-219h-174z" />
<glyph unicode="&#x201d;" horiz-adv-x="559" d="M43 946v96q47 10 68.5 59.5t19.5 149.5h-88v219h174v-202q0 -141 -40 -214t-134 -108zM322 946v96q47 10 68.5 58.5t19.5 150.5h-88v219h174v-202q0 -141 -40 -214t-134 -108z" />
<glyph unicode="&#x201e;" horiz-adv-x="559" d="M43 0v219h174v-203q0 -141 -40 -213.5t-134 -107.5v96q47 10 68.5 59.5t19.5 149.5h-88zM322 0v219h174v-203q0 -141 -40 -214.5t-134 -106.5v96q47 10 68.5 58.5t19.5 150.5h-88z" />
<glyph unicode="&#x2022;" horiz-adv-x="587" d="M31 733q0 70 20.5 129.5t56 103.5t85 68.5t104.5 24.5q53 0 101 -25.5t84 -69.5t56.5 -103.5t20.5 -125.5q0 -68 -20.5 -126t-57.5 -101t-85 -68.5t-103 -25.5t-102.5 24.5t-83 67.5t-56 101.5t-20.5 125.5z" />
<glyph unicode="&#x2026;" horiz-adv-x="1679" d="M193 0v219h174v-219h-174zM752 0v219h174v-219h-174zM1313 0v219h174v-219h-174z" />
<glyph unicode="&#x202f;" horiz-adv-x="386" />
<glyph unicode="&#x2039;" horiz-adv-x="559" d="M147 473v189l265 251v-180l-176 -166l176 -166v-180z" />
<glyph unicode="&#x203a;" horiz-adv-x="559" d="M147 221v180l177 166l-177 166v180l265 -251v-189z" />
<glyph unicode="&#x205f;" horiz-adv-x="483" />
<glyph unicode="&#x2122;" horiz-adv-x="1679" d="M78 1348v122h549v-122h-213v-721h-123v721h-213zM748 627v843h188l197 -620l194 620h189v-843h-123v696l-219 -696h-84l-220 696v-696h-122z" />
<glyph unicode="&#x25fc;" horiz-adv-x="1075" d="M0 0v1075h1075v-1075h-1075z" />
<glyph unicode="&#xfb01;" horiz-adv-x="839" d="M23 922v149h120v184q0 236 224 236h24t33 -2l14 -2v-162q-27 4 -38 4h-23q-45 0 -65.5 -29.5t-20.5 -95.5v-133h147v-149h-147v-922h-148v922h-120zM582 0v1071h147v-1071h-147zM582 1266v204h147v-204h-147z" />
<glyph unicode="&#xfb02;" horiz-adv-x="839" d="M23 922v149h120v184q0 236 224 236h24t33 -2l14 -2v-162q-27 4 -38 4h-23q-45 0 -65.5 -29.5t-20.5 -95.5v-133h147v-149h-147v-922h-148v922h-120zM578 0v1470h147v-1470h-147z" />
</font>
</defs>
</svg>
